<?xml version="1.0" standalone="no"?>
<!DOCTYPE svg PUBLIC "-//W3C//DTD SVG 20010904//EN"
 "http://www.w3.org/TR/2001/REC-SVG-20010904/DTD/svg10.dtd">
<svg version="1.0" xmlns="http://www.w3.org/2000/svg"
 width="180.000000pt" height="180.000000pt" viewBox="0 0 180.000000 180.000000"
 preserveAspectRatio="xMidYMid meet">
<metadata>
Created by potrace 1.14, written by Peter Selinger 2001-2017
</metadata>
<g transform="translate(0.000000,180.000000) scale(0.100000,-0.100000)"
fill="#000000" stroke="none">
<path d="M225 1486 c-17 -7 -43 -28 -58 -45 l-27 -33 0 -443 0 -443 26 -32
c53 -63 20 -60 734 -60 714 0 681 -3 734 60 l26 32 0 443 0 443 -27 33 c-51
61 -31 59 -735 59 -512 -1 -649 -3 -673 -14z m1275 -521 l0 -395 -600 0 -600
0 0 395 0 395 600 0 600 0 0 -395z"/>
<path d="M500 1233 c-28 -10 -60 -47 -60 -69 0 -15 30 -50 97 -112 54 -50 96
-92 93 -94 -43 -31 -181 -164 -186 -180 -14 -45 48 -98 96 -83 27 9 254 206
276 240 9 14 13 33 9 44 -6 21 -258 251 -274 251 -5 0 -15 2 -23 4 -7 3 -20 2
-28 -1z"/>
<path d="M842 807 c-37 -40 -24 -87 29 -106 41 -14 398 -15 435 -1 54 21 67
61 33 104 l-20 26 -228 0 c-225 0 -228 0 -249 -23z"/>
<path d="M399 68 c0 -13 -3 -17 -6 -10 -8 19 -22 14 -20 -8 1 -23 38 -23 49 0
6 13 7 13 7 -1 1 -11 12 -15 45 -15 36 -1 43 2 39 15 -4 11 0 9 10 -4 16 -20
16 -19 17 7 0 27 -3 28 -62 19 -5 0 -8 -9 -9 -18 0 -15 -2 -15 -7 -3 -4 8 -14
16 -22 18 -8 2 -16 8 -18 13 -7 18 -22 9 -23 -13z"/>
<path d="M768 79 c-2 -6 -20 -11 -41 -11 -29 0 -37 -4 -37 -18 0 -15 9 -17 54
-17 44 1 54 4 53 17 -1 21 -24 44 -29 29z m-48 -23 c0 -3 -4 -8 -10 -11 -5 -3
-10 -1 -10 4 0 6 5 11 10 11 6 0 10 -2 10 -4z m50 -6 c0 -5 -7 -10 -15 -10 -8
0 -15 5 -15 10 0 6 7 10 15 10 8 0 15 -4 15 -10z"/>
<path d="M660 55 c0 -14 4 -25 9 -25 5 0 9 11 9 25 0 14 -4 25 -9 25 -5 0 -9
-11 -9 -25z"/>
<path d="M1050 70 c0 -5 4 -10 9 -10 6 0 13 5 16 10 3 6 -1 10 -9 10 -9 0 -16
-4 -16 -10z"/>
<path d="M1103 66 c4 -10 1 -13 -8 -10 -8 3 -21 0 -28 -8 -11 -11 11 -13 137
-14 113 0 144 2 124 10 -16 5 -28 16 -28 23 0 17 -27 17 -33 1 -4 -10 -6 -10
-6 0 -1 7 -16 12 -40 12 -30 0 -44 -6 -56 -22 l-17 -23 8 25 c6 22 5 23 -9 12
-10 -9 -17 -10 -22 -2 -10 15 -28 12 -22 -4z m107 -5 c0 -6 -4 -13 -10 -16 -5
-3 -10 1 -10 9 0 9 5 16 10 16 6 0 10 -4 10 -9z m34 -7 c4 -10 1 -14 -6 -12
-15 5 -23 28 -10 28 5 0 13 -7 16 -16z"/>
<path d="M1322 66 c7 -7 19 -13 28 -12 8 1 14 -5 12 -13 -3 -12 0 -12 12 -1
29 23 19 40 -24 40 -34 0 -39 -2 -28 -14z"/>
<path d="M1407 73 c-4 -3 -7 -15 -7 -25 0 -19 25 -25 35 -7 11 17 -5 25 -16 9
-8 -11 -9 -10 -4 8 6 22 4 27 -8 15z"/>
<path d="M552 52 c2 -8 10 -17 18 -19 13 -4 13 -3 0 6 -13 9 -13 11 1 11 8 0
20 -5 27 -12 9 -9 12 -8 12 5 0 10 5 14 15 11 8 -4 12 -10 9 -15 -3 -5 -1 -9
5 -9 5 0 9 9 8 20 -1 17 -8 19 -50 18 -37 0 -47 -4 -45 -16z"/>
<path d="M835 60 c-7 -11 2 -30 13 -30 4 0 8 9 8 20 0 21 -11 26 -21 10z"/>
<path d="M872 53 c4 -23 58 -26 59 -3 0 10 3 9 9 -5 l9 -20 1 20 c1 19 2 19 9
1 5 -14 10 -16 15 -8 13 22 -5 32 -55 32 -43 0 -50 -3 -47 -17z m28 -3 c0 -5
-4 -10 -10 -10 -5 0 -10 5 -10 10 0 6 5 10 10 10 6 0 10 -4 10 -10z"/>
</g>
</svg>
